<svg width="72" height="24" viewBox="0 0 72 24" fill="none" xmlns="http://www.w3.org/2000/svg">
<path d="M1.61754 18.9981V4.45265H3.81214V17.1089H10.4031V18.9981H1.61754ZM12.7362 18.9981V8.08902H14.8597V18.9981H12.7362ZM13.8086 6.40578C13.4393 6.40578 13.122 6.28267 12.8569 6.03646C12.5965 5.78551 12.4663 5.48722 12.4663 5.14157C12.4663 4.79119 12.5965 4.4929 12.8569 4.24669C13.122 3.99574 13.4393 3.87027 13.8086 3.87027C14.1779 3.87027 14.4928 3.99574 14.7532 4.24669C15.0183 4.4929 15.1509 4.79119 15.1509 5.14157C15.1509 5.48722 15.0183 5.78551 14.7532 6.03646C14.4928 6.28267 14.1779 6.40578 13.8086 6.40578ZM22.9084 8.08902V9.79356H16.7436V8.08902H22.9084ZM18.4339 18.9981V6.82481C18.4339 6.14299 18.5831 5.57718 18.8814 5.12737C19.1797 4.67282 19.575 4.33428 20.0675 4.11174C20.5599 3.88447 21.0949 3.77083 21.6726 3.77083C22.0987 3.77083 22.4633 3.80635 22.7663 3.87737C23.0694 3.94366 23.2943 4.00521 23.4411 4.06203L22.9439 5.78078C22.8445 5.75237 22.7166 5.71923 22.5604 5.68135C22.4041 5.63873 22.2147 5.61743 21.9922 5.61743C21.4761 5.61743 21.1068 5.74527 20.8842 6.00095C20.6664 6.25663 20.5575 6.62595 20.5575 7.1089V18.9981H18.4339ZM29.3714 19.2183C28.2966 19.2183 27.371 18.9886 26.5945 18.5294C25.8227 18.0653 25.2261 17.4143 24.8047 16.5762C24.388 15.7334 24.1797 14.7462 24.1797 13.6146C24.1797 12.4972 24.388 11.5123 24.8047 10.66C25.2261 9.80777 25.8132 9.14252 26.5661 8.6643C27.3236 8.18608 28.209 7.94697 29.2223 7.94697C29.8378 7.94697 30.4344 8.04877 31.0121 8.25237C31.5897 8.45597 32.1082 8.77557 32.5675 9.21118C33.0268 9.64678 33.389 10.2126 33.6541 10.9086C33.9193 11.5999 34.0518 12.4403 34.0518 13.4299V14.1828H25.38V12.5919H31.9709C31.9709 12.0331 31.8572 11.5384 31.63 11.1075C31.4027 10.6719 31.0831 10.3286 30.6712 10.0777C30.264 9.82671 29.7857 9.70123 29.2365 9.70123C28.6399 9.70123 28.1191 9.84801 27.674 10.1416C27.2337 10.4304 26.8928 10.8092 26.6513 11.2779C26.4145 11.742 26.2962 12.2462 26.2962 12.7907V14.0336C26.2962 14.7628 26.424 15.3831 26.6797 15.8944C26.9401 16.4058 27.3023 16.7964 27.7663 17.0663C28.2304 17.3314 28.7725 17.464 29.3928 17.464C29.7952 17.464 30.1622 17.4072 30.4936 17.2936C30.825 17.1752 31.1115 17 31.353 16.768C31.5945 16.536 31.7791 16.2495 31.907 15.9086L33.9169 16.2708C33.7559 16.8627 33.4671 17.3812 33.0504 17.8262C32.6385 18.2666 32.12 18.6099 31.495 18.8561C30.8748 19.0975 30.1669 19.2183 29.3714 19.2183Z" fill="white"/>
<path d="M53.5858 21.8932L53.5777 21.8897L53.552 21.8757C53.4018 21.7931 53.2529 21.7083 53.1052 21.6214C51.3293 20.5661 49.6697 19.3265 48.1538 17.923C45.4693 15.4182 42.625 11.7012 42.625 7.12319C42.625 3.70719 45.4997 0.998191 48.9693 0.998191C49.9339 0.993466 50.8871 1.20625 51.758 1.62073C52.629 2.03521 53.3953 2.6407 54 3.39219C54.6048 2.64055 55.3713 2.03496 56.2425 1.62048C57.1137 1.20599 58.0671 0.993291 59.0318 0.998191C62.5003 0.998191 65.375 3.70719 65.375 7.12319C65.375 11.7024 62.5307 15.4194 59.8462 17.9219C58.3304 19.3253 56.6707 20.565 54.8948 21.6202C54.7471 21.7075 54.5982 21.7927 54.448 21.8757L54.4223 21.8897L54.4142 21.8944L54.4107 21.8955C54.2842 21.9625 54.1432 21.9976 54 21.9976C53.8568 21.9976 53.7158 21.9625 53.5893 21.8955L53.5858 21.8932Z" fill="white"/>
<path d="M63.8933 19.9649L67.0833 13.7316H64.8833V9.69823L61.5833 15.9316H63.8933V19.9649ZM64.3333 22.1649C63.3189 22.1649 62.3656 21.9724 61.4733 21.5874C60.5811 21.2024 59.805 20.6799 59.145 20.0199C58.485 19.3599 57.9625 18.5838 57.5775 17.6916C57.1925 16.7993 57 15.846 57 14.8316C57 13.8171 57.1925 12.8638 57.5775 11.9716C57.9625 11.0793 58.485 10.3032 59.145 9.64323C59.805 8.98323 60.5811 8.46073 61.4733 8.07573C62.3656 7.69073 63.3189 7.49823 64.3333 7.49823C65.3478 7.49823 66.3011 7.69073 67.1933 8.07573C68.0856 8.46073 68.8617 8.98323 69.5217 9.64323C70.1817 10.3032 70.7042 11.0793 71.0892 11.9716C71.4742 12.8638 71.6667 13.8171 71.6667 14.8316C71.6667 15.846 71.4742 16.7993 71.0892 17.6916C70.7042 18.5838 70.1817 19.3599 69.5217 20.0199C68.8617 20.6799 68.0856 21.2024 67.1933 21.5874C66.3011 21.9724 65.3478 22.1649 64.3333 22.1649Z" fill="#894189"/>
<path d="M64.2667 19.4982L67.1667 13.8315H65.1667V10.1649L62.1667 15.8315H64.2667V19.4982ZM64.6667 21.4982C63.7444 21.4982 62.8778 21.3232 62.0667 20.9732C61.2556 20.6232 60.55 20.1482 59.95 19.5482C59.35 18.9482 58.875 18.2426 58.525 17.4315C58.175 16.6204 58 15.7537 58 14.8315C58 13.9093 58.175 13.0426 58.525 12.2315C58.875 11.4204 59.35 10.7149 59.95 10.1149C60.55 9.51486 61.2556 9.03986 62.0667 8.68986C62.8778 8.33986 63.7444 8.16486 64.6667 8.16486C65.5889 8.16486 66.4556 8.33986 67.2667 8.68986C68.0778 9.03986 68.7833 9.51486 69.3833 10.1149C69.9833 10.7149 70.4583 11.4204 70.8083 12.2315C71.1583 13.0426 71.3333 13.9093 71.3333 14.8315C71.3333 15.7537 71.1583 16.6204 70.8083 17.4315C70.4583 18.2426 69.9833 18.9482 69.3833 19.5482C68.7833 20.1482 68.0778 20.6232 67.2667 20.9732C66.4556 21.3232 65.5889 21.4982 64.6667 21.4982Z" fill="white"/>
</svg>
